{"title":"Jersey Boys 2014 HDRIP HC CHNSUB XVID AC3 ACAB","uid":11014131,"size":1504565517,"categoryP":"video","categoryS":"movies","magnet":"?xt=urn:btih:d406a2a4653d47b39dafb11d4b97d446dfcc34a5&amp;dn=Jersey+Boys+2014+HDRIP+HC+CHNSUB+XVID+AC3+ACAB&amp;tr=udp%3A%2F%2Ftracker.openbittorrent.com%3A80&amp;tr=udp%3A%2F%2Fopen.demonii.com%3A1337&amp;tr=udp%3A%2F%2Ftracker.coppersurfer.tk%3A6969&amp;tr=udp%3A%2F%2Fexodus.desync.com%3A6969","seeders":6,"leechers":0,"uploader":"ali1997a","files":3,"time":1410435548,"description":"SilverTorrent - Clean And Verified Torrents Download\n &lt;a href=&quot;\nhttp://i.imgur.com/ky6BGho.png&quot; rel=&quot;nofollow&quot; target=&quot;_NEW&quot;&gt;\nhttp://i.imgur.com/ky6BGho.png&lt;/a&gt;\n &lt;a href=&quot;\nhttp://i.imgur.com/QbNV5WG.jpg&quot; rel=&quot;nofollow&quot; target=&quot;_NEW&quot;&gt;\nhttp://i.imgur.com/QbNV5WG.jpg&lt;/a&gt;\n\nJersey Boys 2014 HDRIP HC CHNSUB XVID AC3 ACAB\n\niMDB:http://www.imdb.com/title/tt1742044/\n\nFormat                                   : AVI\nFormat/Info                              : Audio Video Interleave\nFile size                                : 1.37 GiB\nDuration                                 : 2h 14mn\nOverall bit rate                         : 1 463 Kbps\n\nVideo\nID                                       : 0\nFormat                                   : MPEG-4 Visual\nFormat profile                           : Advanced Simple@L5\nFormat settings, BVOP                    : 2\nFormat settings, QPel                    : No\nFormat settings, GMC                     : No warppoints\nFormat settings, Matrix                  : Default (H.263)\nMuxing mode                              : Packed bitstream\nCodec ID                                 : XVID\nCodec ID/Hint                            : XviD\nDuration                                 : 2h 14mn\nBit rate                                 : 1 199 Kbps\nWidth                                    : 720 pixels\nHeight                                   : 304 pixels\nDisplay aspect ratio                     : 2.35:1\nFrame rate                               : 23.976 fps\nColor space                              : YUV\nChroma subsampling                       : 4:2:0\nBit depth                                : 8 bits\nScan type                                : Progressive\nCompression mode                         : Lossy\nBits/(Pixel*Frame)                       : 0.229\nStream size                              : 1.12 GiB (82%)\nWriting library                          : XviD 1.2.1 (UTC 2008-12-04)\n\nAudio\nID                                       : 1\nFormat                                   : AC-3\nFormat/Info                              : Audio Coding 3\nMode extension                           : CM (complete main)\nFormat settings, Endianness              : Big\nCodec ID                                 : 2000\nDuration                                 : 2h 14mn\nBit rate mode                            : Constant\nBit rate                                 : 256 Kbps\nChannel(s)                               : 2 channels\nChannel positions                        : Front: L R\nSampling rate                            : 44.1 KHz\nBit depth                                : 16 bits\nCompression mode                         : Lossy\nStream size                              : 246 MiB (18%)\nAlignment                                : Aligned on interleaves\nInterleave, duration                     : 70 ms (1.67 video frames)\nInterleave, preload duration             : 209 ms\nTitle                                    : English\n &lt;a href=&quot;\nhttp://i.imgur.com/zteyoqw.png&quot; rel=&quot;nofollow&quot; target=&quot;_NEW&quot;&gt;\nhttp://i.imgur.com/zteyoqw.png&lt;/a&gt;\n &lt;a href=&quot;\nhttp://i.imgur.com/60YDPen.png&quot; rel=&quot;nofollow&quot; target=&quot;_NEW&quot;&gt;\nhttp://i.imgur.com/60YDPen.png&lt;/a&gt;","torrent":{"xt":"urn:btih:d406a2a4653d47b39dafb11d4b97d446dfcc34a5","amp;dn":"Jersey+Boys+2014+HDRIP+HC+CHNSUB+XVID+AC3+ACAB","amp;tr":["udp%3A%2F%2Ftracker.openbittorrent.com%3A80","udp%3A%2F%2Fopen.demonii.com%3A1337","udp%3A%2F%2Ftracker.coppersurfer.tk%3A6969","udp%3A%2F%2Fexodus.desync.com%3A6969"],"infoHash":"d406a2a4653d47b39dafb11d4b97d446dfcc34a5","infoHashBuffer":{"type":"Buffer","data":[212,6,162,164,101,61,71,179,157,175,177,29,75,151,212,70,223,204,52,165]},"announce":[],"urlList":[]}}